<?xml version="1.0" standalone="no"?>
<!DOCTYPE svg PUBLIC "-//W3C//DTD SVG 20010904//EN"
 "http://www.w3.org/TR/2001/REC-SVG-20010904/DTD/svg10.dtd">
<svg version="1.0" xmlns="http://www.w3.org/2000/svg"
 width="300.000000pt" height="300.000000pt" viewBox="0 0 300.000000 300.000000"
 preserveAspectRatio="xMidYMid meet">
<metadata>
Created by potrace 1.11, written by Peter Selinger 2001-2013
</metadata>
<g transform="translate(0.000000,300.000000) scale(0.100000,-0.100000)"
fill="#000000" stroke="none">
<path d="M1360 2114 c-249 -53 -410 -253 -436 -541 -10 -109 -11 -177 -2 -195
13 -27 -7 -30 -47 -8 -44 25 -45 25 -45 -2 0 -38 36 -85 73 -97 24 -8 34 -17
33 -29 -5 -30 49 -214 86 -294 77 -165 167 -258 280 -289 24 -6 78 -11 121
-12 l77 0 1 -36 c0 -20 2 -60 3 -89 3 -46 2 -52 -13 -46 -84 37 -193 -3 -237
-87 -26 -51 -9 -144 31 -166 16 -9 15 -15 -5 -79 -11 -38 -30 -84 -40 -102
-11 -18 -20 -35 -20 -38 0 -2 142 -4 316 -4 l316 0 -5 28 c-3 15 -10 45 -15
68 -5 22 -5 50 -1 62 10 27 44 45 70 37 25 -8 69 -101 73 -154 l4 -36 74 -3
c66 -2 75 -1 75 15 1 37 -21 110 -56 183 -29 60 -34 79 -26 97 5 13 12 23 15
23 4 0 5 31 5 69 -2 52 -7 76 -23 99 -25 34 -89 63 -124 57 -30 -6 -98 -36
-98 -44 0 -5 -100 -6 -131 -2 -3 1 -6 13 -6 29 0 15 -3 62 -7 104 -6 77 -6 77
21 95 28 17 133 118 133 127 0 3 10 22 23 43 35 60 49 101 62 188 7 44 10 171
5 178 -1 1 -4 38 -5 82 -11 275 -21 354 -60 471 -57 169 -145 264 -280 299
-71 18 -128 18 -215 -1z"/>
</g>
</svg>
